# xmcd
#
# Track frame offsets:
#	150
#	38745
#	65097
#	92945
#	138923
#	172553
#	197105
#	216346
#
# Disc length: 3782 seconds
#
# Revision: 2
# Processed by: cddbd v1.5.2PL0 Copyright (c) Steve Scherf et al.
# Submitted via: audiograbber 1.83.01
#
DISCID=6f0ec408
DTITLE=Lionel Hampton - Jazz Ballads 11 - CD 2
DYEAR=2004
DGENRE=Jazz
TTITLE0=These Foolish Things
TTITLE1=On The Sunny Side Of The Street
TTITLE2=Midnight Sun
TTITLE3=Tenderly
TTITLE4=But Beautiful
TTITLE5=A Foggy Day
TTITLE6=Our Love Is Here To Stay
TTITLE7=Body And Soul
EXTD=YEAR: 2004
EXTT0=
EXTT1=
EXTT2=
EXTT3=
EXTT4=
EXTT5=
EXTT6=
EXTT7=
PLAYORDER=
